<mxfile host="app.diagrams.net" agent="Mozilla/5.0 (Windows NT 10.0; Win64; x64) AppleWebKit/537.36 (KHTML, like Gecko) Chrome/141.0.0.0 Safari/537.36" version="28.2.5">
  <diagram name="Страница — 1" id="7mje0Y3BpB5DzldZjP3I">
    <mxGraphModel dx="1426" dy="823" grid="1" gridSize="10" guides="1" tooltips="1" connect="1" arrows="1" fold="1" page="1" pageScale="1" pageWidth="827" pageHeight="1169" math="0" shadow="0">
      <root>
        <mxCell id="0" />
        <mxCell id="1" parent="0" />
        <mxCell id="3XcZbkNfd9Uqor63BX_u-354" value="&lt;font style=&quot;font-size: 24px;&quot;&gt;1&lt;/font&gt;" style="text;html=1;align=center;verticalAlign=middle;whiteSpace=wrap;rounded=0;strokeWidth=1;" vertex="1" parent="1">
          <mxGeometry x="70" y="330" width="60" height="30" as="geometry" />
        </mxCell>
        <mxCell id="3XcZbkNfd9Uqor63BX_u-355" value="&lt;font style=&quot;font-size: 24px;&quot;&gt;1&lt;/font&gt;" style="text;html=1;align=center;verticalAlign=middle;whiteSpace=wrap;rounded=0;fontSize=18;strokeWidth=1;" vertex="1" parent="1">
          <mxGeometry x="110" y="330" width="60" height="30" as="geometry" />
        </mxCell>
        <mxCell id="3XcZbkNfd9Uqor63BX_u-356" value="&lt;font style=&quot;font-size: 24px;&quot;&gt;0&lt;/font&gt;" style="text;html=1;align=center;verticalAlign=middle;whiteSpace=wrap;rounded=0;strokeWidth=1;" vertex="1" parent="1">
          <mxGeometry x="150" y="330" width="60" height="30" as="geometry" />
        </mxCell>
        <mxCell id="3XcZbkNfd9Uqor63BX_u-357" value="&lt;font style=&quot;font-size: 24px;&quot;&gt;0&lt;/font&gt;" style="text;html=1;align=center;verticalAlign=middle;whiteSpace=wrap;rounded=0;strokeWidth=1;" vertex="1" parent="1">
          <mxGeometry x="190" y="330" width="60" height="30" as="geometry" />
        </mxCell>
        <mxCell id="3XcZbkNfd9Uqor63BX_u-358" value="&lt;font style=&quot;font-size: 24px;&quot;&gt;0&lt;/font&gt;" style="text;html=1;align=center;verticalAlign=middle;whiteSpace=wrap;rounded=0;strokeWidth=1;" vertex="1" parent="1">
          <mxGeometry x="230" y="330" width="60" height="30" as="geometry" />
        </mxCell>
        <mxCell id="3XcZbkNfd9Uqor63BX_u-359" value="&lt;span style=&quot;font-size: 24px;&quot;&gt;0&lt;/span&gt;" style="text;html=1;align=center;verticalAlign=middle;whiteSpace=wrap;rounded=0;strokeWidth=1;" vertex="1" parent="1">
          <mxGeometry x="270" y="330" width="60" height="30" as="geometry" />
        </mxCell>
        <mxCell id="3XcZbkNfd9Uqor63BX_u-360" value="&lt;span style=&quot;font-size: 24px;&quot;&gt;0&lt;/span&gt;" style="text;html=1;align=center;verticalAlign=middle;whiteSpace=wrap;rounded=0;strokeWidth=1;" vertex="1" parent="1">
          <mxGeometry x="310" y="330" width="60" height="30" as="geometry" />
        </mxCell>
        <mxCell id="3XcZbkNfd9Uqor63BX_u-361" value="&lt;span style=&quot;font-size: 24px;&quot;&gt;0&lt;/span&gt;" style="text;html=1;align=center;verticalAlign=middle;whiteSpace=wrap;rounded=0;strokeWidth=1;" vertex="1" parent="1">
          <mxGeometry x="350" y="330" width="60" height="30" as="geometry" />
        </mxCell>
        <mxCell id="3XcZbkNfd9Uqor63BX_u-362" value="&lt;span style=&quot;font-size: 24px;&quot;&gt;1&lt;/span&gt;" style="text;html=1;align=center;verticalAlign=middle;whiteSpace=wrap;rounded=0;strokeWidth=1;" vertex="1" parent="1">
          <mxGeometry x="390" y="330" width="60" height="30" as="geometry" />
        </mxCell>
        <mxCell id="3XcZbkNfd9Uqor63BX_u-363" value="&lt;font style=&quot;font-size: 24px;&quot;&gt;1&lt;/font&gt;" style="text;html=1;align=center;verticalAlign=middle;whiteSpace=wrap;rounded=0;strokeWidth=1;" vertex="1" parent="1">
          <mxGeometry x="430" y="330" width="60" height="30" as="geometry" />
        </mxCell>
        <mxCell id="3XcZbkNfd9Uqor63BX_u-364" value="&lt;span style=&quot;font-size: 24px;&quot;&gt;1&lt;/span&gt;" style="text;html=1;align=center;verticalAlign=middle;whiteSpace=wrap;rounded=0;strokeWidth=1;" vertex="1" parent="1">
          <mxGeometry x="470" y="330" width="60" height="30" as="geometry" />
        </mxCell>
        <mxCell id="3XcZbkNfd9Uqor63BX_u-365" value="&lt;span style=&quot;font-size: 24px;&quot;&gt;0&lt;/span&gt;" style="text;html=1;align=center;verticalAlign=middle;whiteSpace=wrap;rounded=0;strokeWidth=1;" vertex="1" parent="1">
          <mxGeometry x="510" y="330" width="60" height="30" as="geometry" />
        </mxCell>
        <mxCell id="3XcZbkNfd9Uqor63BX_u-366" value="&lt;span style=&quot;font-size: 24px;&quot;&gt;1&lt;/span&gt;" style="text;html=1;align=center;verticalAlign=middle;whiteSpace=wrap;rounded=0;strokeWidth=1;" vertex="1" parent="1">
          <mxGeometry x="550" y="330" width="60" height="30" as="geometry" />
        </mxCell>
        <mxCell id="3XcZbkNfd9Uqor63BX_u-367" value="&lt;span style=&quot;font-size: 24px;&quot;&gt;1&lt;/span&gt;" style="text;html=1;align=center;verticalAlign=middle;whiteSpace=wrap;rounded=0;strokeWidth=1;" vertex="1" parent="1">
          <mxGeometry x="590" y="330" width="60" height="30" as="geometry" />
        </mxCell>
        <mxCell id="3XcZbkNfd9Uqor63BX_u-368" value="&lt;span style=&quot;font-size: 24px;&quot;&gt;0&lt;/span&gt;" style="text;html=1;align=center;verticalAlign=middle;whiteSpace=wrap;rounded=0;strokeWidth=1;" vertex="1" parent="1">
          <mxGeometry x="630" y="330" width="60" height="30" as="geometry" />
        </mxCell>
        <mxCell id="3XcZbkNfd9Uqor63BX_u-369" value="&lt;span style=&quot;font-size: 24px;&quot;&gt;1&lt;/span&gt;" style="text;html=1;align=center;verticalAlign=middle;whiteSpace=wrap;rounded=0;strokeWidth=1;" vertex="1" parent="1">
          <mxGeometry x="670" y="330" width="60" height="30" as="geometry" />
        </mxCell>
        <mxCell id="3XcZbkNfd9Uqor63BX_u-370" value="&lt;font style=&quot;font-size: 24px;&quot;&gt;1&lt;/font&gt;" style="text;html=1;align=center;verticalAlign=middle;whiteSpace=wrap;rounded=0;strokeWidth=1;" vertex="1" parent="1">
          <mxGeometry x="707" y="330" width="60" height="30" as="geometry" />
        </mxCell>
        <mxCell id="3XcZbkNfd9Uqor63BX_u-371" value="&lt;span style=&quot;font-size: 24px;&quot;&gt;1&lt;/span&gt;" style="text;html=1;align=center;verticalAlign=middle;whiteSpace=wrap;rounded=0;strokeWidth=1;" vertex="1" parent="1">
          <mxGeometry x="750" y="330" width="60" height="30" as="geometry" />
        </mxCell>
        <mxCell id="3XcZbkNfd9Uqor63BX_u-372" value="&lt;font style=&quot;font-size: 24px;&quot;&gt;0&lt;/font&gt;" style="text;html=1;align=center;verticalAlign=middle;whiteSpace=wrap;rounded=0;strokeWidth=1;" vertex="1" parent="1">
          <mxGeometry x="790" y="330" width="60" height="30" as="geometry" />
        </mxCell>
        <mxCell id="3XcZbkNfd9Uqor63BX_u-373" value="&lt;span style=&quot;font-size: 24px;&quot;&gt;0&lt;/span&gt;" style="text;html=1;align=center;verticalAlign=middle;whiteSpace=wrap;rounded=0;strokeWidth=1;" vertex="1" parent="1">
          <mxGeometry x="830" y="330" width="60" height="30" as="geometry" />
        </mxCell>
        <mxCell id="3XcZbkNfd9Uqor63BX_u-374" value="&lt;span style=&quot;font-size: 24px;&quot;&gt;0&lt;/span&gt;" style="text;html=1;align=center;verticalAlign=middle;whiteSpace=wrap;rounded=0;strokeWidth=1;" vertex="1" parent="1">
          <mxGeometry x="870" y="330" width="60" height="30" as="geometry" />
        </mxCell>
        <mxCell id="3XcZbkNfd9Uqor63BX_u-375" value="&lt;span style=&quot;font-size: 24px;&quot;&gt;0&lt;/span&gt;" style="text;html=1;align=center;verticalAlign=middle;whiteSpace=wrap;rounded=0;strokeWidth=1;" vertex="1" parent="1">
          <mxGeometry x="910" y="330" width="60" height="30" as="geometry" />
        </mxCell>
        <mxCell id="3XcZbkNfd9Uqor63BX_u-376" value="&lt;span style=&quot;font-size: 24px;&quot;&gt;1&lt;/span&gt;" style="text;html=1;align=center;verticalAlign=middle;whiteSpace=wrap;rounded=0;strokeWidth=1;" vertex="1" parent="1">
          <mxGeometry x="950" y="330" width="60" height="30" as="geometry" />
        </mxCell>
        <mxCell id="3XcZbkNfd9Uqor63BX_u-377" value="&lt;span style=&quot;font-size: 24px;&quot;&gt;1&lt;/span&gt;" style="text;html=1;align=center;verticalAlign=middle;whiteSpace=wrap;rounded=0;strokeWidth=1;" vertex="1" parent="1">
          <mxGeometry x="990" y="330" width="60" height="30" as="geometry" />
        </mxCell>
        <mxCell id="3XcZbkNfd9Uqor63BX_u-378" value="&lt;span style=&quot;font-size: 24px;&quot;&gt;0&lt;/span&gt;" style="text;html=1;align=center;verticalAlign=middle;whiteSpace=wrap;rounded=0;strokeWidth=1;" vertex="1" parent="1">
          <mxGeometry x="1150" y="330" width="60" height="30" as="geometry" />
        </mxCell>
        <mxCell id="3XcZbkNfd9Uqor63BX_u-379" value="&lt;span style=&quot;font-size: 24px;&quot;&gt;0&lt;/span&gt;" style="text;html=1;align=center;verticalAlign=middle;whiteSpace=wrap;rounded=0;strokeWidth=1;" vertex="1" parent="1">
          <mxGeometry x="1110" y="330" width="60" height="30" as="geometry" />
        </mxCell>
        <mxCell id="3XcZbkNfd9Uqor63BX_u-380" value="&lt;font style=&quot;font-size: 24px;&quot;&gt;1&lt;/font&gt;" style="text;html=1;align=center;verticalAlign=middle;whiteSpace=wrap;rounded=0;strokeWidth=1;" vertex="1" parent="1">
          <mxGeometry x="1030" y="330" width="60" height="30" as="geometry" />
        </mxCell>
        <mxCell id="3XcZbkNfd9Uqor63BX_u-381" value="&lt;span style=&quot;font-size: 24px;&quot;&gt;1&lt;/span&gt;" style="text;html=1;align=center;verticalAlign=middle;whiteSpace=wrap;rounded=0;strokeWidth=1;" vertex="1" parent="1">
          <mxGeometry x="1070" y="330" width="60" height="30" as="geometry" />
        </mxCell>
        <mxCell id="3XcZbkNfd9Uqor63BX_u-382" value="&lt;span style=&quot;font-size: 24px;&quot;&gt;0&lt;/span&gt;" style="text;html=1;align=center;verticalAlign=middle;whiteSpace=wrap;rounded=0;strokeWidth=1;" vertex="1" parent="1">
          <mxGeometry x="1190" y="330" width="60" height="30" as="geometry" />
        </mxCell>
        <mxCell id="3XcZbkNfd9Uqor63BX_u-383" value="&lt;span style=&quot;font-size: 24px;&quot;&gt;0&lt;/span&gt;" style="text;html=1;align=center;verticalAlign=middle;whiteSpace=wrap;rounded=0;strokeWidth=1;" vertex="1" parent="1">
          <mxGeometry x="1230" y="330" width="60" height="30" as="geometry" />
        </mxCell>
        <mxCell id="3XcZbkNfd9Uqor63BX_u-384" value="&lt;span style=&quot;font-size: 24px;&quot;&gt;1&lt;/span&gt;" style="text;html=1;align=center;verticalAlign=middle;whiteSpace=wrap;rounded=0;strokeWidth=1;" vertex="1" parent="1">
          <mxGeometry x="1270" y="330" width="60" height="30" as="geometry" />
        </mxCell>
        <mxCell id="3XcZbkNfd9Uqor63BX_u-385" value="&lt;span style=&quot;font-size: 24px;&quot;&gt;0&lt;/span&gt;" style="text;html=1;align=center;verticalAlign=middle;whiteSpace=wrap;rounded=0;strokeWidth=1;" vertex="1" parent="1">
          <mxGeometry x="1310" y="330" width="60" height="30" as="geometry" />
        </mxCell>
        <mxCell id="3XcZbkNfd9Uqor63BX_u-388" value="" style="endArrow=none;html=1;rounded=0;strokeWidth=1;" edge="1" parent="1">
          <mxGeometry width="50" height="50" relative="1" as="geometry">
            <mxPoint x="80" y="480" as="sourcePoint" />
            <mxPoint x="100" y="480" as="targetPoint" />
          </mxGeometry>
        </mxCell>
        <mxCell id="3XcZbkNfd9Uqor63BX_u-390" value="" style="endArrow=none;html=1;rounded=0;strokeWidth=1;" edge="1" parent="1">
          <mxGeometry width="50" height="50" relative="1" as="geometry">
            <mxPoint x="100" y="400" as="sourcePoint" />
            <mxPoint x="140" y="400" as="targetPoint" />
          </mxGeometry>
        </mxCell>
        <mxCell id="3XcZbkNfd9Uqor63BX_u-391" value="" style="endArrow=none;html=1;rounded=0;strokeWidth=1;" edge="1" parent="1">
          <mxGeometry width="50" height="50" relative="1" as="geometry">
            <mxPoint x="140" y="400" as="sourcePoint" />
            <mxPoint x="140" y="480" as="targetPoint" />
          </mxGeometry>
        </mxCell>
        <mxCell id="3XcZbkNfd9Uqor63BX_u-392" value="" style="endArrow=none;html=1;rounded=0;strokeWidth=1;" edge="1" parent="1">
          <mxGeometry width="50" height="50" relative="1" as="geometry">
            <mxPoint x="140" y="480" as="sourcePoint" />
            <mxPoint x="160" y="480" as="targetPoint" />
          </mxGeometry>
        </mxCell>
        <mxCell id="3XcZbkNfd9Uqor63BX_u-393" value="" style="endArrow=none;html=1;rounded=0;strokeWidth=1;" edge="1" parent="1">
          <mxGeometry width="50" height="50" relative="1" as="geometry">
            <mxPoint x="160" y="480" as="sourcePoint" />
            <mxPoint x="160" y="400" as="targetPoint" />
          </mxGeometry>
        </mxCell>
        <mxCell id="3XcZbkNfd9Uqor63BX_u-394" value="" style="endArrow=none;html=1;rounded=0;strokeWidth=1;" edge="1" parent="1">
          <mxGeometry width="50" height="50" relative="1" as="geometry">
            <mxPoint x="160" y="400" as="sourcePoint" />
            <mxPoint x="180" y="400" as="targetPoint" />
          </mxGeometry>
        </mxCell>
        <mxCell id="3XcZbkNfd9Uqor63BX_u-395" value="" style="endArrow=none;html=1;rounded=0;strokeWidth=1;" edge="1" parent="1">
          <mxGeometry width="50" height="50" relative="1" as="geometry">
            <mxPoint x="179.5" y="400" as="sourcePoint" />
            <mxPoint x="179.5" y="480" as="targetPoint" />
          </mxGeometry>
        </mxCell>
        <mxCell id="3XcZbkNfd9Uqor63BX_u-396" value="" style="endArrow=none;html=1;rounded=0;strokeWidth=1;" edge="1" parent="1">
          <mxGeometry width="50" height="50" relative="1" as="geometry">
            <mxPoint x="180" y="480" as="sourcePoint" />
            <mxPoint x="200" y="480" as="targetPoint" />
          </mxGeometry>
        </mxCell>
        <mxCell id="3XcZbkNfd9Uqor63BX_u-397" value="" style="endArrow=none;html=1;rounded=0;strokeWidth=1;" edge="1" parent="1">
          <mxGeometry width="50" height="50" relative="1" as="geometry">
            <mxPoint x="200" y="480" as="sourcePoint" />
            <mxPoint x="200" y="400" as="targetPoint" />
          </mxGeometry>
        </mxCell>
        <mxCell id="3XcZbkNfd9Uqor63BX_u-398" value="" style="endArrow=none;html=1;rounded=0;strokeWidth=1;" edge="1" parent="1">
          <mxGeometry width="50" height="50" relative="1" as="geometry">
            <mxPoint x="200" y="400" as="sourcePoint" />
            <mxPoint x="220" y="400" as="targetPoint" />
          </mxGeometry>
        </mxCell>
        <mxCell id="3XcZbkNfd9Uqor63BX_u-399" value="" style="endArrow=none;html=1;rounded=0;strokeWidth=1;" edge="1" parent="1">
          <mxGeometry width="50" height="50" relative="1" as="geometry">
            <mxPoint x="219.5" y="400" as="sourcePoint" />
            <mxPoint x="219.5" y="480" as="targetPoint" />
          </mxGeometry>
        </mxCell>
        <mxCell id="3XcZbkNfd9Uqor63BX_u-400" value="" style="endArrow=none;html=1;rounded=0;strokeWidth=1;" edge="1" parent="1">
          <mxGeometry width="50" height="50" relative="1" as="geometry">
            <mxPoint x="220" y="480" as="sourcePoint" />
            <mxPoint x="240" y="480" as="targetPoint" />
          </mxGeometry>
        </mxCell>
        <mxCell id="3XcZbkNfd9Uqor63BX_u-401" value="" style="endArrow=none;html=1;rounded=0;strokeWidth=1;" edge="1" parent="1">
          <mxGeometry width="50" height="50" relative="1" as="geometry">
            <mxPoint x="240" y="480" as="sourcePoint" />
            <mxPoint x="240" y="400" as="targetPoint" />
          </mxGeometry>
        </mxCell>
        <mxCell id="3XcZbkNfd9Uqor63BX_u-402" value="" style="endArrow=none;html=1;rounded=0;strokeWidth=1;" edge="1" parent="1">
          <mxGeometry width="50" height="50" relative="1" as="geometry">
            <mxPoint x="240" y="400" as="sourcePoint" />
            <mxPoint x="260" y="400" as="targetPoint" />
          </mxGeometry>
        </mxCell>
        <mxCell id="3XcZbkNfd9Uqor63BX_u-403" value="" style="endArrow=none;html=1;rounded=0;strokeWidth=1;" edge="1" parent="1">
          <mxGeometry width="50" height="50" relative="1" as="geometry">
            <mxPoint x="259.5" y="400" as="sourcePoint" />
            <mxPoint x="259.5" y="480" as="targetPoint" />
          </mxGeometry>
        </mxCell>
        <mxCell id="3XcZbkNfd9Uqor63BX_u-404" value="" style="endArrow=none;html=1;rounded=0;strokeWidth=1;" edge="1" parent="1">
          <mxGeometry width="50" height="50" relative="1" as="geometry">
            <mxPoint x="260" y="480" as="sourcePoint" />
            <mxPoint x="280" y="480" as="targetPoint" />
          </mxGeometry>
        </mxCell>
        <mxCell id="3XcZbkNfd9Uqor63BX_u-405" value="" style="endArrow=none;html=1;rounded=0;strokeWidth=1;" edge="1" parent="1">
          <mxGeometry width="50" height="50" relative="1" as="geometry">
            <mxPoint x="280" y="480" as="sourcePoint" />
            <mxPoint x="280" y="400" as="targetPoint" />
          </mxGeometry>
        </mxCell>
        <mxCell id="3XcZbkNfd9Uqor63BX_u-406" value="" style="endArrow=none;html=1;rounded=0;strokeWidth=1;" edge="1" parent="1">
          <mxGeometry width="50" height="50" relative="1" as="geometry">
            <mxPoint x="280" y="400" as="sourcePoint" />
            <mxPoint x="300" y="400" as="targetPoint" />
          </mxGeometry>
        </mxCell>
        <mxCell id="3XcZbkNfd9Uqor63BX_u-407" value="" style="endArrow=none;html=1;rounded=0;strokeWidth=1;" edge="1" parent="1">
          <mxGeometry width="50" height="50" relative="1" as="geometry">
            <mxPoint x="299.5" y="400" as="sourcePoint" />
            <mxPoint x="299.5" y="480" as="targetPoint" />
          </mxGeometry>
        </mxCell>
        <mxCell id="3XcZbkNfd9Uqor63BX_u-408" value="" style="endArrow=none;html=1;rounded=0;strokeWidth=1;" edge="1" parent="1">
          <mxGeometry width="50" height="50" relative="1" as="geometry">
            <mxPoint x="300" y="480" as="sourcePoint" />
            <mxPoint x="320" y="480" as="targetPoint" />
          </mxGeometry>
        </mxCell>
        <mxCell id="3XcZbkNfd9Uqor63BX_u-409" value="" style="endArrow=none;html=1;rounded=0;strokeWidth=1;" edge="1" parent="1">
          <mxGeometry width="50" height="50" relative="1" as="geometry">
            <mxPoint x="320" y="480" as="sourcePoint" />
            <mxPoint x="320" y="400" as="targetPoint" />
          </mxGeometry>
        </mxCell>
        <mxCell id="3XcZbkNfd9Uqor63BX_u-410" value="" style="endArrow=none;html=1;rounded=0;strokeWidth=1;" edge="1" parent="1">
          <mxGeometry width="50" height="50" relative="1" as="geometry">
            <mxPoint x="320" y="400" as="sourcePoint" />
            <mxPoint x="340" y="400" as="targetPoint" />
          </mxGeometry>
        </mxCell>
        <mxCell id="3XcZbkNfd9Uqor63BX_u-411" value="" style="endArrow=none;html=1;rounded=0;strokeWidth=1;" edge="1" parent="1">
          <mxGeometry width="50" height="50" relative="1" as="geometry">
            <mxPoint x="339.5" y="400" as="sourcePoint" />
            <mxPoint x="339.5" y="480" as="targetPoint" />
          </mxGeometry>
        </mxCell>
        <mxCell id="3XcZbkNfd9Uqor63BX_u-412" value="" style="endArrow=none;html=1;rounded=0;strokeWidth=1;" edge="1" parent="1">
          <mxGeometry width="50" height="50" relative="1" as="geometry">
            <mxPoint x="340" y="480" as="sourcePoint" />
            <mxPoint x="360" y="480" as="targetPoint" />
          </mxGeometry>
        </mxCell>
        <mxCell id="3XcZbkNfd9Uqor63BX_u-413" value="" style="endArrow=none;html=1;rounded=0;strokeWidth=1;" edge="1" parent="1">
          <mxGeometry width="50" height="50" relative="1" as="geometry">
            <mxPoint x="360" y="480" as="sourcePoint" />
            <mxPoint x="360" y="400" as="targetPoint" />
          </mxGeometry>
        </mxCell>
        <mxCell id="3XcZbkNfd9Uqor63BX_u-414" value="" style="endArrow=none;html=1;rounded=0;strokeWidth=1;" edge="1" parent="1">
          <mxGeometry width="50" height="50" relative="1" as="geometry">
            <mxPoint x="380" y="400" as="sourcePoint" />
            <mxPoint x="360" y="400" as="targetPoint" />
          </mxGeometry>
        </mxCell>
        <mxCell id="3XcZbkNfd9Uqor63BX_u-415" value="" style="endArrow=none;html=1;rounded=0;strokeWidth=1;" edge="1" parent="1">
          <mxGeometry width="50" height="50" relative="1" as="geometry">
            <mxPoint x="379.5" y="480" as="sourcePoint" />
            <mxPoint x="379.5" y="400" as="targetPoint" />
          </mxGeometry>
        </mxCell>
        <mxCell id="3XcZbkNfd9Uqor63BX_u-416" value="" style="endArrow=none;html=1;rounded=0;strokeWidth=1;" edge="1" parent="1">
          <mxGeometry width="50" height="50" relative="1" as="geometry">
            <mxPoint x="420" y="480" as="sourcePoint" />
            <mxPoint x="380" y="480" as="targetPoint" />
          </mxGeometry>
        </mxCell>
        <mxCell id="3XcZbkNfd9Uqor63BX_u-417" value="" style="endArrow=none;html=1;rounded=0;strokeWidth=1;" edge="1" parent="1">
          <mxGeometry width="50" height="50" relative="1" as="geometry">
            <mxPoint x="419.5" y="480" as="sourcePoint" />
            <mxPoint x="419.5" y="400" as="targetPoint" />
          </mxGeometry>
        </mxCell>
        <mxCell id="3XcZbkNfd9Uqor63BX_u-418" value="" style="endArrow=none;html=1;rounded=0;strokeWidth=1;" edge="1" parent="1">
          <mxGeometry width="50" height="50" relative="1" as="geometry">
            <mxPoint x="460" y="400" as="sourcePoint" />
            <mxPoint x="420" y="400" as="targetPoint" />
          </mxGeometry>
        </mxCell>
        <mxCell id="3XcZbkNfd9Uqor63BX_u-419" value="" style="endArrow=none;html=1;rounded=0;strokeWidth=1;" edge="1" parent="1">
          <mxGeometry width="50" height="50" relative="1" as="geometry">
            <mxPoint x="460" y="480" as="sourcePoint" />
            <mxPoint x="460" y="400" as="targetPoint" />
          </mxGeometry>
        </mxCell>
        <mxCell id="3XcZbkNfd9Uqor63BX_u-420" value="" style="endArrow=none;html=1;rounded=0;strokeWidth=1;" edge="1" parent="1">
          <mxGeometry width="50" height="50" relative="1" as="geometry">
            <mxPoint x="460" y="480" as="sourcePoint" />
            <mxPoint x="500" y="480" as="targetPoint" />
          </mxGeometry>
        </mxCell>
        <mxCell id="3XcZbkNfd9Uqor63BX_u-421" value="" style="endArrow=none;html=1;rounded=0;strokeWidth=1;" edge="1" parent="1">
          <mxGeometry width="50" height="50" relative="1" as="geometry">
            <mxPoint x="499.5" y="480" as="sourcePoint" />
            <mxPoint x="499.5" y="400" as="targetPoint" />
          </mxGeometry>
        </mxCell>
        <mxCell id="3XcZbkNfd9Uqor63BX_u-422" value="" style="endArrow=none;html=1;rounded=0;strokeWidth=1;" edge="1" parent="1">
          <mxGeometry width="50" height="50" relative="1" as="geometry">
            <mxPoint x="500" y="400" as="sourcePoint" />
            <mxPoint x="520" y="400" as="targetPoint" />
          </mxGeometry>
        </mxCell>
        <mxCell id="3XcZbkNfd9Uqor63BX_u-423" value="" style="endArrow=none;html=1;rounded=0;strokeWidth=1;" edge="1" parent="1">
          <mxGeometry width="50" height="50" relative="1" as="geometry">
            <mxPoint x="520" y="480" as="sourcePoint" />
            <mxPoint x="520" y="400" as="targetPoint" />
          </mxGeometry>
        </mxCell>
        <mxCell id="3XcZbkNfd9Uqor63BX_u-424" value="" style="endArrow=none;html=1;rounded=0;strokeWidth=1;" edge="1" parent="1">
          <mxGeometry width="50" height="50" relative="1" as="geometry">
            <mxPoint x="520" y="480" as="sourcePoint" />
            <mxPoint x="540" y="480" as="targetPoint" />
          </mxGeometry>
        </mxCell>
        <mxCell id="3XcZbkNfd9Uqor63BX_u-425" value="" style="endArrow=none;html=1;rounded=0;strokeWidth=1;" edge="1" parent="1">
          <mxGeometry width="50" height="50" relative="1" as="geometry">
            <mxPoint x="540" y="480" as="sourcePoint" />
            <mxPoint x="540" y="400" as="targetPoint" />
          </mxGeometry>
        </mxCell>
        <mxCell id="3XcZbkNfd9Uqor63BX_u-426" value="" style="endArrow=none;html=1;rounded=0;strokeWidth=1;" edge="1" parent="1">
          <mxGeometry width="50" height="50" relative="1" as="geometry">
            <mxPoint x="540" y="400" as="sourcePoint" />
            <mxPoint x="560" y="400" as="targetPoint" />
          </mxGeometry>
        </mxCell>
        <mxCell id="3XcZbkNfd9Uqor63BX_u-427" value="" style="endArrow=none;html=1;rounded=0;strokeWidth=1;" edge="1" parent="1">
          <mxGeometry width="50" height="50" relative="1" as="geometry">
            <mxPoint x="560" y="400" as="sourcePoint" />
            <mxPoint x="580" y="400" as="targetPoint" />
            <Array as="points">
              <mxPoint x="570" y="400" />
            </Array>
          </mxGeometry>
        </mxCell>
        <mxCell id="3XcZbkNfd9Uqor63BX_u-428" value="" style="endArrow=none;html=1;rounded=0;strokeWidth=1;" edge="1" parent="1">
          <mxGeometry width="50" height="50" relative="1" as="geometry">
            <mxPoint x="580" y="480" as="sourcePoint" />
            <mxPoint x="580" y="400" as="targetPoint" />
          </mxGeometry>
        </mxCell>
        <mxCell id="3XcZbkNfd9Uqor63BX_u-429" value="" style="endArrow=none;html=1;rounded=0;strokeWidth=1;" edge="1" parent="1">
          <mxGeometry width="50" height="50" relative="1" as="geometry">
            <mxPoint x="580" y="480" as="sourcePoint" />
            <mxPoint x="620" y="480" as="targetPoint" />
          </mxGeometry>
        </mxCell>
        <mxCell id="3XcZbkNfd9Uqor63BX_u-430" value="" style="endArrow=none;html=1;rounded=0;strokeWidth=1;" edge="1" parent="1">
          <mxGeometry width="50" height="50" relative="1" as="geometry">
            <mxPoint x="600" y="480" as="sourcePoint" />
            <mxPoint x="600" y="480" as="targetPoint" />
          </mxGeometry>
        </mxCell>
        <mxCell id="3XcZbkNfd9Uqor63BX_u-433" value="" style="endArrow=none;html=1;rounded=0;strokeWidth=1;" edge="1" parent="1">
          <mxGeometry width="50" height="50" relative="1" as="geometry">
            <mxPoint x="619.5" y="400" as="sourcePoint" />
            <mxPoint x="619.5" y="480" as="targetPoint" />
          </mxGeometry>
        </mxCell>
        <mxCell id="3XcZbkNfd9Uqor63BX_u-434" value="" style="endArrow=none;html=1;rounded=0;strokeWidth=1;" edge="1" parent="1">
          <mxGeometry width="50" height="50" relative="1" as="geometry">
            <mxPoint x="620" y="400" as="sourcePoint" />
            <mxPoint x="640" y="400" as="targetPoint" />
          </mxGeometry>
        </mxCell>
        <mxCell id="3XcZbkNfd9Uqor63BX_u-435" value="" style="endArrow=none;html=1;rounded=0;strokeWidth=1;" edge="1" parent="1">
          <mxGeometry width="50" height="50" relative="1" as="geometry">
            <mxPoint x="640" y="480" as="sourcePoint" />
            <mxPoint x="640" y="400" as="targetPoint" />
          </mxGeometry>
        </mxCell>
        <mxCell id="3XcZbkNfd9Uqor63BX_u-436" value="" style="endArrow=none;html=1;rounded=0;strokeWidth=1;" edge="1" parent="1">
          <mxGeometry width="50" height="50" relative="1" as="geometry">
            <mxPoint x="680" y="400" as="sourcePoint" />
            <mxPoint x="660" y="400" as="targetPoint" />
          </mxGeometry>
        </mxCell>
        <mxCell id="3XcZbkNfd9Uqor63BX_u-437" value="" style="endArrow=none;html=1;rounded=0;strokeWidth=1;" edge="1" parent="1">
          <mxGeometry width="50" height="50" relative="1" as="geometry">
            <mxPoint x="700" y="480" as="sourcePoint" />
            <mxPoint x="700" y="400" as="targetPoint" />
          </mxGeometry>
        </mxCell>
        <mxCell id="3XcZbkNfd9Uqor63BX_u-438" value="" style="endArrow=none;html=1;rounded=0;strokeWidth=1;" edge="1" parent="1">
          <mxGeometry width="50" height="50" relative="1" as="geometry">
            <mxPoint x="680" y="400" as="sourcePoint" />
            <mxPoint x="700" y="400" as="targetPoint" />
          </mxGeometry>
        </mxCell>
        <mxCell id="3XcZbkNfd9Uqor63BX_u-444" value="" style="endArrow=none;html=1;rounded=0;strokeWidth=1;" edge="1" parent="1">
          <mxGeometry width="50" height="50" relative="1" as="geometry">
            <mxPoint x="780" y="400" as="sourcePoint" />
            <mxPoint x="740" y="400" as="targetPoint" />
          </mxGeometry>
        </mxCell>
        <mxCell id="3XcZbkNfd9Uqor63BX_u-445" value="" style="endArrow=none;html=1;rounded=0;strokeWidth=1;" edge="1" parent="1">
          <mxGeometry width="50" height="50" relative="1" as="geometry">
            <mxPoint x="780" y="400" as="sourcePoint" />
            <mxPoint x="780" y="480" as="targetPoint" />
          </mxGeometry>
        </mxCell>
        <mxCell id="3XcZbkNfd9Uqor63BX_u-446" value="" style="endArrow=none;html=1;rounded=0;strokeWidth=1;" edge="1" parent="1">
          <mxGeometry width="50" height="50" relative="1" as="geometry">
            <mxPoint x="800" y="480" as="sourcePoint" />
            <mxPoint x="780" y="480" as="targetPoint" />
          </mxGeometry>
        </mxCell>
        <mxCell id="3XcZbkNfd9Uqor63BX_u-447" value="" style="endArrow=none;html=1;rounded=0;strokeWidth=1;" edge="1" parent="1">
          <mxGeometry width="50" height="50" relative="1" as="geometry">
            <mxPoint x="800" y="400" as="sourcePoint" />
            <mxPoint x="800" y="480" as="targetPoint" />
          </mxGeometry>
        </mxCell>
        <mxCell id="3XcZbkNfd9Uqor63BX_u-448" value="" style="endArrow=none;html=1;rounded=0;strokeWidth=1;" edge="1" parent="1">
          <mxGeometry width="50" height="50" relative="1" as="geometry">
            <mxPoint x="820" y="400" as="sourcePoint" />
            <mxPoint x="800" y="400" as="targetPoint" />
          </mxGeometry>
        </mxCell>
        <mxCell id="3XcZbkNfd9Uqor63BX_u-449" value="" style="endArrow=none;html=1;rounded=0;strokeWidth=1;" edge="1" parent="1">
          <mxGeometry width="50" height="50" relative="1" as="geometry">
            <mxPoint x="819.5" y="400" as="sourcePoint" />
            <mxPoint x="819.5" y="480" as="targetPoint" />
          </mxGeometry>
        </mxCell>
        <mxCell id="3XcZbkNfd9Uqor63BX_u-450" value="" style="endArrow=none;html=1;rounded=0;strokeWidth=1;" edge="1" parent="1">
          <mxGeometry width="50" height="50" relative="1" as="geometry">
            <mxPoint x="820" y="480" as="sourcePoint" />
            <mxPoint x="840" y="480" as="targetPoint" />
          </mxGeometry>
        </mxCell>
        <mxCell id="3XcZbkNfd9Uqor63BX_u-451" value="" style="endArrow=none;html=1;rounded=0;strokeWidth=1;" edge="1" parent="1">
          <mxGeometry width="50" height="50" relative="1" as="geometry">
            <mxPoint x="880" y="400" as="sourcePoint" />
            <mxPoint x="880" y="480" as="targetPoint" />
          </mxGeometry>
        </mxCell>
        <mxCell id="3XcZbkNfd9Uqor63BX_u-452" value="" style="endArrow=none;html=1;rounded=0;strokeWidth=1;" edge="1" parent="1">
          <mxGeometry width="50" height="50" relative="1" as="geometry">
            <mxPoint x="920" y="480" as="sourcePoint" />
            <mxPoint x="900" y="480" as="targetPoint" />
          </mxGeometry>
        </mxCell>
        <mxCell id="3XcZbkNfd9Uqor63BX_u-453" value="" style="endArrow=none;html=1;rounded=0;strokeWidth=1;" edge="1" parent="1">
          <mxGeometry width="50" height="50" relative="1" as="geometry">
            <mxPoint x="899.5" y="400" as="sourcePoint" />
            <mxPoint x="899.5" y="480" as="targetPoint" />
          </mxGeometry>
        </mxCell>
        <mxCell id="3XcZbkNfd9Uqor63BX_u-454" value="" style="endArrow=none;html=1;rounded=0;strokeWidth=1;" edge="1" parent="1">
          <mxGeometry width="50" height="50" relative="1" as="geometry">
            <mxPoint x="940" y="400" as="sourcePoint" />
            <mxPoint x="920" y="400" as="targetPoint" />
          </mxGeometry>
        </mxCell>
        <mxCell id="3XcZbkNfd9Uqor63BX_u-455" value="" style="endArrow=none;html=1;rounded=0;strokeWidth=1;" edge="1" parent="1">
          <mxGeometry width="50" height="50" relative="1" as="geometry">
            <mxPoint x="920" y="400" as="sourcePoint" />
            <mxPoint x="920" y="480" as="targetPoint" />
          </mxGeometry>
        </mxCell>
        <mxCell id="3XcZbkNfd9Uqor63BX_u-456" value="" style="endArrow=none;html=1;rounded=0;strokeWidth=1;" edge="1" parent="1">
          <mxGeometry width="50" height="50" relative="1" as="geometry">
            <mxPoint x="940" y="480" as="sourcePoint" />
            <mxPoint x="980" y="480" as="targetPoint" />
          </mxGeometry>
        </mxCell>
        <mxCell id="3XcZbkNfd9Uqor63BX_u-458" value="" style="endArrow=none;html=1;rounded=0;strokeWidth=1;" edge="1" parent="1">
          <mxGeometry width="50" height="50" relative="1" as="geometry">
            <mxPoint x="980" y="400" as="sourcePoint" />
            <mxPoint x="980" y="480" as="targetPoint" />
          </mxGeometry>
        </mxCell>
        <mxCell id="3XcZbkNfd9Uqor63BX_u-460" value="" style="endArrow=none;html=1;rounded=0;strokeWidth=1;" edge="1" parent="1">
          <mxGeometry width="50" height="50" relative="1" as="geometry">
            <mxPoint x="1020" y="400" as="sourcePoint" />
            <mxPoint x="980" y="400" as="targetPoint" />
          </mxGeometry>
        </mxCell>
        <mxCell id="3XcZbkNfd9Uqor63BX_u-462" value="" style="endArrow=none;html=1;rounded=0;strokeWidth=1;" edge="1" parent="1">
          <mxGeometry width="50" height="50" relative="1" as="geometry">
            <mxPoint x="1020" y="400" as="sourcePoint" />
            <mxPoint x="1020" y="480" as="targetPoint" />
          </mxGeometry>
        </mxCell>
        <mxCell id="3XcZbkNfd9Uqor63BX_u-463" value="" style="endArrow=none;html=1;rounded=0;strokeWidth=1;" edge="1" parent="1">
          <mxGeometry width="50" height="50" relative="1" as="geometry">
            <mxPoint x="1060" y="400" as="sourcePoint" />
            <mxPoint x="1060" y="480" as="targetPoint" />
          </mxGeometry>
        </mxCell>
        <mxCell id="3XcZbkNfd9Uqor63BX_u-466" value="" style="endArrow=none;html=1;rounded=0;strokeWidth=1;" edge="1" parent="1">
          <mxGeometry width="50" height="50" relative="1" as="geometry">
            <mxPoint x="1060" y="400" as="sourcePoint" />
            <mxPoint x="1100" y="400" as="targetPoint" />
          </mxGeometry>
        </mxCell>
        <mxCell id="3XcZbkNfd9Uqor63BX_u-467" value="" style="endArrow=none;html=1;rounded=0;strokeWidth=1;" edge="1" parent="1">
          <mxGeometry width="50" height="50" relative="1" as="geometry">
            <mxPoint x="1100" y="400" as="sourcePoint" />
            <mxPoint x="1100" y="480" as="targetPoint" />
          </mxGeometry>
        </mxCell>
        <mxCell id="3XcZbkNfd9Uqor63BX_u-468" value="" style="endArrow=none;html=1;rounded=0;strokeWidth=1;" edge="1" parent="1">
          <mxGeometry width="50" height="50" relative="1" as="geometry">
            <mxPoint x="1120" y="480" as="sourcePoint" />
            <mxPoint x="1100" y="480" as="targetPoint" />
          </mxGeometry>
        </mxCell>
        <mxCell id="3XcZbkNfd9Uqor63BX_u-469" value="" style="endArrow=none;html=1;rounded=0;strokeWidth=1;" edge="1" parent="1">
          <mxGeometry width="50" height="50" relative="1" as="geometry">
            <mxPoint x="1120" y="400" as="sourcePoint" />
            <mxPoint x="1120" y="480" as="targetPoint" />
          </mxGeometry>
        </mxCell>
        <mxCell id="3XcZbkNfd9Uqor63BX_u-470" value="" style="endArrow=none;html=1;rounded=0;strokeWidth=1;" edge="1" parent="1">
          <mxGeometry width="50" height="50" relative="1" as="geometry">
            <mxPoint x="1140" y="400" as="sourcePoint" />
            <mxPoint x="1120" y="400" as="targetPoint" />
          </mxGeometry>
        </mxCell>
        <mxCell id="3XcZbkNfd9Uqor63BX_u-471" value="" style="endArrow=none;html=1;rounded=0;strokeWidth=1;" edge="1" parent="1">
          <mxGeometry width="50" height="50" relative="1" as="geometry">
            <mxPoint x="1139.5" y="400" as="sourcePoint" />
            <mxPoint x="1139.5" y="480" as="targetPoint" />
          </mxGeometry>
        </mxCell>
        <mxCell id="3XcZbkNfd9Uqor63BX_u-472" value="" style="endArrow=none;html=1;rounded=0;strokeWidth=1;" edge="1" parent="1">
          <mxGeometry width="50" height="50" relative="1" as="geometry">
            <mxPoint x="1160" y="480" as="sourcePoint" />
            <mxPoint x="1140" y="480" as="targetPoint" />
          </mxGeometry>
        </mxCell>
        <mxCell id="3XcZbkNfd9Uqor63BX_u-473" value="" style="endArrow=none;html=1;rounded=0;strokeWidth=1;" edge="1" parent="1">
          <mxGeometry width="50" height="50" relative="1" as="geometry">
            <mxPoint x="1160" y="400" as="sourcePoint" />
            <mxPoint x="1160" y="480" as="targetPoint" />
          </mxGeometry>
        </mxCell>
        <mxCell id="3XcZbkNfd9Uqor63BX_u-474" value="" style="endArrow=none;html=1;rounded=0;strokeWidth=1;" edge="1" parent="1">
          <mxGeometry width="50" height="50" relative="1" as="geometry">
            <mxPoint x="1180" y="400" as="sourcePoint" />
            <mxPoint x="1160" y="400" as="targetPoint" />
          </mxGeometry>
        </mxCell>
        <mxCell id="3XcZbkNfd9Uqor63BX_u-475" value="" style="endArrow=none;html=1;rounded=0;strokeWidth=1;" edge="1" parent="1">
          <mxGeometry width="50" height="50" relative="1" as="geometry">
            <mxPoint x="1179.5" y="480" as="sourcePoint" />
            <mxPoint x="1179.5" y="400" as="targetPoint" />
          </mxGeometry>
        </mxCell>
        <mxCell id="3XcZbkNfd9Uqor63BX_u-476" value="" style="endArrow=none;html=1;rounded=0;strokeWidth=1;" edge="1" parent="1">
          <mxGeometry width="50" height="50" relative="1" as="geometry">
            <mxPoint x="1200" y="480" as="sourcePoint" />
            <mxPoint x="1200" y="400" as="targetPoint" />
          </mxGeometry>
        </mxCell>
        <mxCell id="3XcZbkNfd9Uqor63BX_u-477" value="" style="endArrow=none;html=1;rounded=0;strokeWidth=1;" edge="1" parent="1">
          <mxGeometry width="50" height="50" relative="1" as="geometry">
            <mxPoint x="1200" y="480" as="sourcePoint" />
            <mxPoint x="1180" y="480" as="targetPoint" />
          </mxGeometry>
        </mxCell>
        <mxCell id="3XcZbkNfd9Uqor63BX_u-478" value="" style="endArrow=none;html=1;rounded=0;strokeWidth=1;" edge="1" parent="1">
          <mxGeometry width="50" height="50" relative="1" as="geometry">
            <mxPoint x="1200" y="400" as="sourcePoint" />
            <mxPoint x="1220" y="400" as="targetPoint" />
          </mxGeometry>
        </mxCell>
        <mxCell id="3XcZbkNfd9Uqor63BX_u-479" value="" style="endArrow=none;html=1;rounded=0;strokeWidth=1;" edge="1" parent="1">
          <mxGeometry width="50" height="50" relative="1" as="geometry">
            <mxPoint x="1219.5" y="480" as="sourcePoint" />
            <mxPoint x="1219.5" y="400" as="targetPoint" />
          </mxGeometry>
        </mxCell>
        <mxCell id="3XcZbkNfd9Uqor63BX_u-480" value="" style="endArrow=none;html=1;rounded=0;strokeWidth=1;" edge="1" parent="1">
          <mxGeometry width="50" height="50" relative="1" as="geometry">
            <mxPoint x="1300" y="480" as="sourcePoint" />
            <mxPoint x="1260" y="480" as="targetPoint" />
          </mxGeometry>
        </mxCell>
        <mxCell id="3XcZbkNfd9Uqor63BX_u-481" value="" style="endArrow=none;html=1;rounded=0;strokeWidth=1;" edge="1" parent="1">
          <mxGeometry width="50" height="50" relative="1" as="geometry">
            <mxPoint x="1259.5" y="400" as="sourcePoint" />
            <mxPoint x="1259.5" y="480" as="targetPoint" />
          </mxGeometry>
        </mxCell>
        <mxCell id="3XcZbkNfd9Uqor63BX_u-482" value="" style="endArrow=none;html=1;rounded=0;strokeWidth=1;" edge="1" parent="1">
          <mxGeometry width="50" height="50" relative="1" as="geometry">
            <mxPoint x="1300" y="400" as="sourcePoint" />
            <mxPoint x="1320" y="400" as="targetPoint" />
          </mxGeometry>
        </mxCell>
        <mxCell id="3XcZbkNfd9Uqor63BX_u-484" value="" style="endArrow=none;html=1;rounded=0;strokeWidth=1;" edge="1" parent="1">
          <mxGeometry width="50" height="50" relative="1" as="geometry">
            <mxPoint x="1299.5" y="480" as="sourcePoint" />
            <mxPoint x="1299.5" y="400" as="targetPoint" />
          </mxGeometry>
        </mxCell>
        <mxCell id="3XcZbkNfd9Uqor63BX_u-485" value="" style="endArrow=none;dashed=1;html=1;rounded=0;textOpacity=0;opacity=30;strokeWidth=1;" edge="1" parent="1">
          <mxGeometry width="50" height="50" relative="1" as="geometry">
            <mxPoint x="80" y="320" as="sourcePoint" />
            <mxPoint x="80" y="600" as="targetPoint" />
          </mxGeometry>
        </mxCell>
        <mxCell id="3XcZbkNfd9Uqor63BX_u-486" value="" style="endArrow=none;dashed=1;html=1;rounded=0;opacity=40;strokeWidth=1;" edge="1" parent="1">
          <mxGeometry width="50" height="50" relative="1" as="geometry">
            <mxPoint x="120" y="600" as="sourcePoint" />
            <mxPoint x="120" y="320" as="targetPoint" />
          </mxGeometry>
        </mxCell>
        <mxCell id="3XcZbkNfd9Uqor63BX_u-487" value="" style="endArrow=none;dashed=1;html=1;rounded=0;opacity=40;strokeWidth=1;" edge="1" parent="1">
          <mxGeometry width="50" height="50" relative="1" as="geometry">
            <mxPoint x="160" y="600" as="sourcePoint" />
            <mxPoint x="160" y="320" as="targetPoint" />
          </mxGeometry>
        </mxCell>
        <mxCell id="3XcZbkNfd9Uqor63BX_u-488" value="" style="endArrow=none;dashed=1;html=1;rounded=0;opacity=40;strokeWidth=1;" edge="1" parent="1">
          <mxGeometry width="50" height="50" relative="1" as="geometry">
            <mxPoint x="200" y="600" as="sourcePoint" />
            <mxPoint x="200" y="320" as="targetPoint" />
          </mxGeometry>
        </mxCell>
        <mxCell id="3XcZbkNfd9Uqor63BX_u-489" value="" style="endArrow=none;dashed=1;html=1;rounded=0;opacity=40;strokeWidth=1;" edge="1" parent="1">
          <mxGeometry width="50" height="50" relative="1" as="geometry">
            <mxPoint x="240" y="600" as="sourcePoint" />
            <mxPoint x="240" y="320" as="targetPoint" />
          </mxGeometry>
        </mxCell>
        <mxCell id="3XcZbkNfd9Uqor63BX_u-490" value="" style="endArrow=none;dashed=1;html=1;rounded=0;opacity=40;strokeWidth=1;" edge="1" parent="1">
          <mxGeometry width="50" height="50" relative="1" as="geometry">
            <mxPoint x="280" y="600" as="sourcePoint" />
            <mxPoint x="280" y="320" as="targetPoint" />
          </mxGeometry>
        </mxCell>
        <mxCell id="3XcZbkNfd9Uqor63BX_u-491" value="" style="endArrow=none;dashed=1;html=1;rounded=0;opacity=40;strokeWidth=1;" edge="1" parent="1">
          <mxGeometry width="50" height="50" relative="1" as="geometry">
            <mxPoint x="320" y="600" as="sourcePoint" />
            <mxPoint x="320" y="320" as="targetPoint" />
          </mxGeometry>
        </mxCell>
        <mxCell id="3XcZbkNfd9Uqor63BX_u-492" value="" style="endArrow=none;dashed=1;html=1;rounded=0;opacity=40;strokeWidth=1;" edge="1" parent="1">
          <mxGeometry width="50" height="50" relative="1" as="geometry">
            <mxPoint x="360" y="600" as="sourcePoint" />
            <mxPoint x="360" y="320" as="targetPoint" />
          </mxGeometry>
        </mxCell>
        <mxCell id="3XcZbkNfd9Uqor63BX_u-493" value="" style="endArrow=none;dashed=1;html=1;rounded=0;opacity=40;strokeWidth=1;" edge="1" parent="1">
          <mxGeometry width="50" height="50" relative="1" as="geometry">
            <mxPoint x="400" y="600" as="sourcePoint" />
            <mxPoint x="400" y="320" as="targetPoint" />
          </mxGeometry>
        </mxCell>
        <mxCell id="3XcZbkNfd9Uqor63BX_u-494" value="" style="endArrow=none;dashed=1;html=1;rounded=0;opacity=40;strokeWidth=1;" edge="1" parent="1">
          <mxGeometry width="50" height="50" relative="1" as="geometry">
            <mxPoint x="440" y="600" as="sourcePoint" />
            <mxPoint x="440" y="320" as="targetPoint" />
          </mxGeometry>
        </mxCell>
        <mxCell id="3XcZbkNfd9Uqor63BX_u-495" value="" style="endArrow=none;dashed=1;html=1;rounded=0;opacity=40;strokeWidth=1;" edge="1" parent="1">
          <mxGeometry width="50" height="50" relative="1" as="geometry">
            <mxPoint x="480" y="600" as="sourcePoint" />
            <mxPoint x="480" y="320" as="targetPoint" />
          </mxGeometry>
        </mxCell>
        <mxCell id="3XcZbkNfd9Uqor63BX_u-496" value="" style="endArrow=none;dashed=1;html=1;rounded=0;opacity=40;strokeWidth=1;" edge="1" parent="1">
          <mxGeometry width="50" height="50" relative="1" as="geometry">
            <mxPoint x="520" y="600" as="sourcePoint" />
            <mxPoint x="520" y="320" as="targetPoint" />
          </mxGeometry>
        </mxCell>
        <mxCell id="3XcZbkNfd9Uqor63BX_u-497" value="" style="endArrow=none;dashed=1;html=1;rounded=0;opacity=40;strokeWidth=1;" edge="1" parent="1">
          <mxGeometry width="50" height="50" relative="1" as="geometry">
            <mxPoint x="560" y="600" as="sourcePoint" />
            <mxPoint x="560" y="320" as="targetPoint" />
          </mxGeometry>
        </mxCell>
        <mxCell id="3XcZbkNfd9Uqor63BX_u-498" value="" style="endArrow=none;dashed=1;html=1;rounded=0;opacity=40;strokeWidth=1;" edge="1" parent="1">
          <mxGeometry width="50" height="50" relative="1" as="geometry">
            <mxPoint x="600" y="600" as="sourcePoint" />
            <mxPoint x="600" y="320" as="targetPoint" />
          </mxGeometry>
        </mxCell>
        <mxCell id="3XcZbkNfd9Uqor63BX_u-499" value="" style="endArrow=none;dashed=1;html=1;rounded=0;opacity=40;strokeWidth=1;" edge="1" parent="1">
          <mxGeometry width="50" height="50" relative="1" as="geometry">
            <mxPoint x="640" y="600" as="sourcePoint" />
            <mxPoint x="640" y="320" as="targetPoint" />
          </mxGeometry>
        </mxCell>
        <mxCell id="3XcZbkNfd9Uqor63BX_u-500" value="" style="endArrow=none;dashed=1;html=1;rounded=0;opacity=40;strokeWidth=1;" edge="1" parent="1">
          <mxGeometry width="50" height="50" relative="1" as="geometry">
            <mxPoint x="680" y="600" as="sourcePoint" />
            <mxPoint x="680" y="320" as="targetPoint" />
          </mxGeometry>
        </mxCell>
        <mxCell id="3XcZbkNfd9Uqor63BX_u-501" value="" style="endArrow=none;dashed=1;html=1;rounded=0;opacity=40;strokeWidth=1;" edge="1" parent="1">
          <mxGeometry width="50" height="50" relative="1" as="geometry">
            <mxPoint x="720" y="600" as="sourcePoint" />
            <mxPoint x="720" y="320" as="targetPoint" />
          </mxGeometry>
        </mxCell>
        <mxCell id="3XcZbkNfd9Uqor63BX_u-502" value="" style="endArrow=none;dashed=1;html=1;rounded=0;opacity=40;strokeWidth=1;" edge="1" parent="1">
          <mxGeometry width="50" height="50" relative="1" as="geometry">
            <mxPoint x="760" y="600" as="sourcePoint" />
            <mxPoint x="760" y="320" as="targetPoint" />
          </mxGeometry>
        </mxCell>
        <mxCell id="3XcZbkNfd9Uqor63BX_u-503" value="" style="endArrow=none;dashed=1;html=1;rounded=0;opacity=40;strokeWidth=1;" edge="1" parent="1">
          <mxGeometry width="50" height="50" relative="1" as="geometry">
            <mxPoint x="800" y="600" as="sourcePoint" />
            <mxPoint x="800" y="320" as="targetPoint" />
          </mxGeometry>
        </mxCell>
        <mxCell id="3XcZbkNfd9Uqor63BX_u-504" value="" style="endArrow=none;dashed=1;html=1;rounded=0;opacity=40;strokeWidth=1;" edge="1" parent="1">
          <mxGeometry width="50" height="50" relative="1" as="geometry">
            <mxPoint x="880" y="600" as="sourcePoint" />
            <mxPoint x="880" y="320" as="targetPoint" />
          </mxGeometry>
        </mxCell>
        <mxCell id="3XcZbkNfd9Uqor63BX_u-505" value="" style="endArrow=none;dashed=1;html=1;rounded=0;opacity=40;strokeWidth=1;" edge="1" parent="1">
          <mxGeometry width="50" height="50" relative="1" as="geometry">
            <mxPoint x="840" y="600" as="sourcePoint" />
            <mxPoint x="840" y="320" as="targetPoint" />
          </mxGeometry>
        </mxCell>
        <mxCell id="3XcZbkNfd9Uqor63BX_u-506" value="" style="endArrow=none;dashed=1;html=1;rounded=0;opacity=40;strokeWidth=1;" edge="1" parent="1">
          <mxGeometry width="50" height="50" relative="1" as="geometry">
            <mxPoint x="1080" y="600" as="sourcePoint" />
            <mxPoint x="1080" y="320" as="targetPoint" />
          </mxGeometry>
        </mxCell>
        <mxCell id="3XcZbkNfd9Uqor63BX_u-507" value="" style="endArrow=none;dashed=1;html=1;rounded=0;opacity=40;strokeWidth=1;" edge="1" parent="1">
          <mxGeometry width="50" height="50" relative="1" as="geometry">
            <mxPoint x="1040" y="600" as="sourcePoint" />
            <mxPoint x="1040" y="320" as="targetPoint" />
          </mxGeometry>
        </mxCell>
        <mxCell id="3XcZbkNfd9Uqor63BX_u-508" value="" style="endArrow=none;dashed=1;html=1;rounded=0;opacity=40;strokeWidth=1;" edge="1" parent="1">
          <mxGeometry width="50" height="50" relative="1" as="geometry">
            <mxPoint x="1000" y="600" as="sourcePoint" />
            <mxPoint x="1000" y="320" as="targetPoint" />
          </mxGeometry>
        </mxCell>
        <mxCell id="3XcZbkNfd9Uqor63BX_u-509" value="" style="endArrow=none;dashed=1;html=1;rounded=0;opacity=40;strokeWidth=1;" edge="1" parent="1">
          <mxGeometry width="50" height="50" relative="1" as="geometry">
            <mxPoint x="960" y="600" as="sourcePoint" />
            <mxPoint x="960" y="320" as="targetPoint" />
          </mxGeometry>
        </mxCell>
        <mxCell id="3XcZbkNfd9Uqor63BX_u-510" value="" style="endArrow=none;dashed=1;html=1;rounded=0;opacity=40;strokeWidth=1;" edge="1" parent="1">
          <mxGeometry width="50" height="50" relative="1" as="geometry">
            <mxPoint x="920" y="600" as="sourcePoint" />
            <mxPoint x="920" y="320" as="targetPoint" />
          </mxGeometry>
        </mxCell>
        <mxCell id="3XcZbkNfd9Uqor63BX_u-511" value="" style="endArrow=none;dashed=1;html=1;rounded=0;opacity=40;strokeWidth=1;" edge="1" parent="1">
          <mxGeometry width="50" height="50" relative="1" as="geometry">
            <mxPoint x="1239.5" y="600" as="sourcePoint" />
            <mxPoint x="1239.5" y="320" as="targetPoint" />
          </mxGeometry>
        </mxCell>
        <mxCell id="3XcZbkNfd9Uqor63BX_u-512" value="" style="endArrow=none;dashed=1;html=1;rounded=0;opacity=40;strokeWidth=1;" edge="1" parent="1">
          <mxGeometry width="50" height="50" relative="1" as="geometry">
            <mxPoint x="1200" y="600" as="sourcePoint" />
            <mxPoint x="1200" y="320" as="targetPoint" />
          </mxGeometry>
        </mxCell>
        <mxCell id="3XcZbkNfd9Uqor63BX_u-513" value="" style="endArrow=none;dashed=1;html=1;rounded=0;opacity=40;strokeWidth=1;" edge="1" parent="1">
          <mxGeometry width="50" height="50" relative="1" as="geometry">
            <mxPoint x="1160" y="600" as="sourcePoint" />
            <mxPoint x="1160" y="320" as="targetPoint" />
          </mxGeometry>
        </mxCell>
        <mxCell id="3XcZbkNfd9Uqor63BX_u-514" value="" style="endArrow=none;dashed=1;html=1;rounded=0;opacity=40;strokeWidth=1;" edge="1" parent="1">
          <mxGeometry width="50" height="50" relative="1" as="geometry">
            <mxPoint x="1120" y="600" as="sourcePoint" />
            <mxPoint x="1120" y="320" as="targetPoint" />
          </mxGeometry>
        </mxCell>
        <mxCell id="3XcZbkNfd9Uqor63BX_u-515" value="" style="endArrow=none;dashed=1;html=1;rounded=0;opacity=40;strokeWidth=1;" edge="1" parent="1">
          <mxGeometry width="50" height="50" relative="1" as="geometry">
            <mxPoint x="1360" y="600" as="sourcePoint" />
            <mxPoint x="1360" y="320" as="targetPoint" />
          </mxGeometry>
        </mxCell>
        <mxCell id="3XcZbkNfd9Uqor63BX_u-516" value="" style="endArrow=none;dashed=1;html=1;rounded=0;opacity=40;strokeWidth=1;" edge="1" parent="1">
          <mxGeometry width="50" height="50" relative="1" as="geometry">
            <mxPoint x="1320" y="600" as="sourcePoint" />
            <mxPoint x="1320" y="320" as="targetPoint" />
          </mxGeometry>
        </mxCell>
        <mxCell id="3XcZbkNfd9Uqor63BX_u-517" value="" style="endArrow=none;dashed=1;html=1;rounded=0;opacity=40;strokeWidth=1;" edge="1" parent="1">
          <mxGeometry width="50" height="50" relative="1" as="geometry">
            <mxPoint x="1280.0000000000002" y="600" as="sourcePoint" />
            <mxPoint x="1280.0000000000002" y="320" as="targetPoint" />
          </mxGeometry>
        </mxCell>
        <mxCell id="3XcZbkNfd9Uqor63BX_u-518" value="" style="endArrow=none;html=1;rounded=0;strokeWidth=1;" edge="1" parent="1">
          <mxGeometry width="50" height="50" relative="1" as="geometry">
            <mxPoint x="1320" y="480" as="sourcePoint" />
            <mxPoint x="1340" y="480" as="targetPoint" />
          </mxGeometry>
        </mxCell>
        <mxCell id="3XcZbkNfd9Uqor63BX_u-519" value="" style="endArrow=none;html=1;rounded=0;strokeWidth=1;" edge="1" parent="1">
          <mxGeometry width="50" height="50" relative="1" as="geometry">
            <mxPoint x="700" y="480" as="sourcePoint" />
            <mxPoint x="740" y="480" as="targetPoint" />
          </mxGeometry>
        </mxCell>
        <mxCell id="3XcZbkNfd9Uqor63BX_u-520" value="" style="endArrow=none;html=1;rounded=0;strokeWidth=1;" edge="1" parent="1">
          <mxGeometry width="50" height="50" relative="1" as="geometry">
            <mxPoint x="840" y="400" as="sourcePoint" />
            <mxPoint x="840" y="480" as="targetPoint" />
          </mxGeometry>
        </mxCell>
        <mxCell id="3XcZbkNfd9Uqor63BX_u-521" value="" style="endArrow=none;html=1;rounded=0;strokeWidth=1;" edge="1" parent="1">
          <mxGeometry width="50" height="50" relative="1" as="geometry">
            <mxPoint x="840" y="400" as="sourcePoint" />
            <mxPoint x="860" y="400" as="targetPoint" />
          </mxGeometry>
        </mxCell>
        <mxCell id="3XcZbkNfd9Uqor63BX_u-522" value="" style="endArrow=none;html=1;rounded=0;strokeWidth=1;" edge="1" parent="1">
          <mxGeometry width="50" height="50" relative="1" as="geometry">
            <mxPoint x="859.5" y="400" as="sourcePoint" />
            <mxPoint x="859.5" y="480" as="targetPoint" />
          </mxGeometry>
        </mxCell>
        <mxCell id="3XcZbkNfd9Uqor63BX_u-523" value="" style="endArrow=none;html=1;rounded=0;strokeWidth=1;" edge="1" parent="1">
          <mxGeometry width="50" height="50" relative="1" as="geometry">
            <mxPoint x="880" y="400" as="sourcePoint" />
            <mxPoint x="900" y="400" as="targetPoint" />
          </mxGeometry>
        </mxCell>
        <mxCell id="3XcZbkNfd9Uqor63BX_u-524" value="" style="endArrow=none;html=1;rounded=0;strokeWidth=1;" edge="1" parent="1">
          <mxGeometry width="50" height="50" relative="1" as="geometry">
            <mxPoint x="1060" y="480" as="sourcePoint" />
            <mxPoint x="1020" y="480" as="targetPoint" />
          </mxGeometry>
        </mxCell>
        <mxCell id="3XcZbkNfd9Uqor63BX_u-527" value="" style="endArrow=none;html=1;rounded=0;strokeWidth=1;" edge="1" parent="1">
          <mxGeometry width="50" height="50" relative="1" as="geometry">
            <mxPoint x="1261" y="400" as="sourcePoint" />
            <mxPoint x="1241" y="400" as="targetPoint" />
          </mxGeometry>
        </mxCell>
        <mxCell id="3XcZbkNfd9Uqor63BX_u-528" value="" style="endArrow=none;html=1;rounded=0;strokeWidth=1;" edge="1" parent="1">
          <mxGeometry width="50" height="50" relative="1" as="geometry">
            <mxPoint x="1240" y="480" as="sourcePoint" />
            <mxPoint x="1220" y="480" as="targetPoint" />
          </mxGeometry>
        </mxCell>
        <mxCell id="3XcZbkNfd9Uqor63BX_u-529" value="" style="endArrow=none;html=1;rounded=0;strokeWidth=1;" edge="1" parent="1">
          <mxGeometry width="50" height="50" relative="1" as="geometry">
            <mxPoint x="1241" y="480" as="sourcePoint" />
            <mxPoint x="1241" y="400" as="targetPoint" />
          </mxGeometry>
        </mxCell>
        <mxCell id="3XcZbkNfd9Uqor63BX_u-531" value="" style="endArrow=none;html=1;rounded=0;strokeWidth=1;" edge="1" parent="1">
          <mxGeometry width="50" height="50" relative="1" as="geometry">
            <mxPoint x="99.5" y="480" as="sourcePoint" />
            <mxPoint x="99.5" y="400" as="targetPoint" />
          </mxGeometry>
        </mxCell>
        <mxCell id="3XcZbkNfd9Uqor63BX_u-532" value="" style="endArrow=none;html=1;rounded=0;strokeWidth=1;" edge="1" parent="1">
          <mxGeometry width="50" height="50" relative="1" as="geometry">
            <mxPoint x="740" y="400" as="sourcePoint" />
            <mxPoint x="740" y="480" as="targetPoint" />
          </mxGeometry>
        </mxCell>
        <mxCell id="3XcZbkNfd9Uqor63BX_u-533" value="" style="endArrow=none;html=1;rounded=0;strokeWidth=1;" edge="1" parent="1">
          <mxGeometry width="50" height="50" relative="1" as="geometry">
            <mxPoint x="860" y="480" as="sourcePoint" />
            <mxPoint x="880" y="480" as="targetPoint" />
          </mxGeometry>
        </mxCell>
        <mxCell id="3XcZbkNfd9Uqor63BX_u-534" value="" style="endArrow=none;html=1;rounded=0;strokeWidth=1;" edge="1" parent="1">
          <mxGeometry width="50" height="50" relative="1" as="geometry">
            <mxPoint x="939.5" y="400" as="sourcePoint" />
            <mxPoint x="939.5" y="480" as="targetPoint" />
          </mxGeometry>
        </mxCell>
        <mxCell id="3XcZbkNfd9Uqor63BX_u-535" value="" style="endArrow=none;html=1;rounded=0;strokeWidth=1;" edge="1" parent="1">
          <mxGeometry width="50" height="50" relative="1" as="geometry">
            <mxPoint x="1320" y="480" as="sourcePoint" />
            <mxPoint x="1320" y="400" as="targetPoint" />
          </mxGeometry>
        </mxCell>
        <mxCell id="3XcZbkNfd9Uqor63BX_u-536" value="" style="endArrow=none;html=1;rounded=0;strokeWidth=1;" edge="1" parent="1">
          <mxGeometry width="50" height="50" relative="1" as="geometry">
            <mxPoint x="1360" y="400" as="sourcePoint" />
            <mxPoint x="1340" y="400" as="targetPoint" />
          </mxGeometry>
        </mxCell>
        <mxCell id="3XcZbkNfd9Uqor63BX_u-538" value="" style="endArrow=none;html=1;rounded=0;strokeWidth=1;" edge="1" parent="1">
          <mxGeometry width="50" height="50" relative="1" as="geometry">
            <mxPoint x="660" y="480" as="sourcePoint" />
            <mxPoint x="640" y="480" as="targetPoint" />
          </mxGeometry>
        </mxCell>
        <mxCell id="3XcZbkNfd9Uqor63BX_u-539" value="" style="endArrow=none;html=1;rounded=0;strokeWidth=1;" edge="1" parent="1">
          <mxGeometry width="50" height="50" relative="1" as="geometry">
            <mxPoint x="659.5" y="480" as="sourcePoint" />
            <mxPoint x="659.5" y="400" as="targetPoint" />
          </mxGeometry>
        </mxCell>
        <mxCell id="3XcZbkNfd9Uqor63BX_u-541" value="" style="endArrow=none;html=1;rounded=0;strokeWidth=1;" edge="1" parent="1">
          <mxGeometry width="50" height="50" relative="1" as="geometry">
            <mxPoint x="1340" y="480" as="sourcePoint" />
            <mxPoint x="1340" y="400" as="targetPoint" />
          </mxGeometry>
        </mxCell>
      </root>
    </mxGraphModel>
  </diagram>
</mxfile>
